<svg xmlns="http://www.w3.org/2000/svg" viewBox="0 0 63.9 25.7"><defs><style>.a{fill:#fff;}</style></defs><title>ibm-logo</title><polygon class="a" points="0 0 12.4 0 12.4 1.8 0 1.8 0 0 0 0"/><polygon class="a" points="27.6 0 28 0 28.5 0.1 28.9 0.2 29.3 0.2 29.8 0.4 30.2 0.6 30.6 0.8 31 1 31.4 1.2 31.7 1.5 32 1.8 14.2 1.8 14.2 0 27.6 0 27.6 0"/><polygon class="a" points="35.5 0 45.6 0 46.2 1.8 35.5 1.8 35.5 0 35.5 0"/><polygon class="a" points="53.8 0 63.9 0 63.9 1.8 53.2 1.8 53.8 0 53.8 0"/><polygon class="a" points="0 3.4 12.4 3.4 12.4 5.2 0 5.2 0 3.4 0 3.4"/><polygon class="a" points="3.6 6.8 8.9 6.8 8.9 8.6 3.6 8.6 3.6 6.8 3.6 6.8"/><polygon class="a" points="3.6 10.2 8.9 10.2 8.9 12 3.6 12 3.6 10.2 3.6 10.2"/><polygon class="a" points="33.3 3.4 33.4 3.6 33.6 4 33.7 4.5 33.9 5.2 14.2 5.2 14.2 3.4 33.3 3.4 33.3 3.4"/><polygon class="a" points="17.8 6.8 23.1 6.8 23.1 8.6 17.8 8.6 17.8 6.8 17.8 6.8"/><polygon class="a" points="34.1 6.8 34.1 7.1 34 7.6 34 8 33.9 8.4 33.8 8.6 28.4 8.6 28.4 6.8 34.1 6.8 34.1 6.8"/><polygon class="a" points="33.1 10.2 32.9 10.5 32.6 10.8 32.3 11.2 32 11.5 31.7 11.8 31.4 12 17.8 12 17.8 10.2 33.1 10.2 33.1 10.2"/><polygon class="a" points="35.5 3.4 46.8 3.4 47.4 5.2 35.5 5.2 35.5 3.4 35.5 3.4"/><polygon class="a" points="63.9 3.4 63.9 5.2 52 5.2 52.6 3.4 63.9 3.4 63.9 3.4"/><polygon class="a" points="39.1 6.8 48 6.8 48.6 8.6 39.1 8.6 39.1 6.8 39.1 6.8"/><polygon class="a" points="60.4 6.8 60.4 8.6 50.9 8.6 51.5 6.8 60.4 6.8 60.4 6.8"/><polygon class="a" points="45 12 54.5 12 55.1 10.4 55.1 12 60.4 12 60.4 10.2 50.3 10.2 49.7 11.8 49.2 10.2 39.1 10.2 39.1 12 44.4 12 44.4 10.4 45 12 45 12"/><polygon class="a" points="0 23.9 12.4 23.9 12.4 25.7 0 25.7 0 23.9 0 23.9"/><polygon class="a" points="0 20.5 12.4 20.5 12.4 22.2 0 22.2 0 20.5 0 20.5"/><polygon class="a" points="3.6 13.7 8.9 13.7 8.9 15.4 3.6 15.4 3.6 13.7 3.6 13.7"/><polygon class="a" points="3.6 17.1 8.9 17.1 8.9 18.8 3.6 18.8 3.6 17.1 3.6 17.1"/><polygon class="a" points="31.4 13.7 31.7 13.9 32 14.2 32.3 14.5 32.6 14.8 32.9 15.2 33.1 15.4 17.8 15.4 17.8 13.7 31.4 13.7 31.4 13.7"/><polygon class="a" points="17.8 17.1 23.1 17.1 23.1 18.8 17.8 18.8 17.8 17.1 17.8 17.1"/><polygon class="a" points="33.8 17.1 33.9 17.2 34 17.7 34 18.1 34.1 18.6 34.1 18.8 28.4 18.8 28.4 17.1 33.8 17.1 33.8 17.1"/><polygon class="a" points="33.9 20.5 33.9 20.8 33.7 21.2 33.6 21.7 33.4 22.1 33.3 22.2 14.2 22.2 14.2 20.5 33.9 20.5 33.9 20.5"/><polygon class="a" points="32 23.9 31.7 24.2 31.3 24.5 30.9 24.7 30.5 24.9 30.1 25.1 29.7 25.3 29.3 25.4 28.8 25.5 28.4 25.6 28 25.7 27.5 25.7 14.2 25.7 14.2 23.9 32 23.9 32 23.9"/><polygon class="a" points="39.1 13.7 44.4 13.7 44.4 15.4 39.1 15.4 39.1 13.7 39.1 13.7"/><polygon class="a" points="53.3 15.4 46.1 15.4 45.5 13.7 54 13.7 53.3 15.4 53.3 15.4"/><polygon class="a" points="55.1 13.7 60.4 13.7 60.4 15.4 55.1 15.4 55.1 13.7 55.1 13.7"/><polygon class="a" points="39.1 17.1 44.4 17.1 44.4 18.8 39.1 18.8 39.1 17.1 39.1 17.1"/><polygon class="a" points="52.8 17.1 52.2 18.8 47.3 18.8 46.7 17.1 52.8 17.1 52.8 17.1"/><polygon class="a" points="55.1 17.1 60.4 17.1 60.4 18.8 55.1 18.8 55.1 17.1 55.1 17.1"/><polygon class="a" points="35.5 20.5 44.4 20.5 44.4 22.2 35.5 22.2 35.5 20.5 35.5 20.5"/><polygon class="a" points="51.6 20.5 51 22.2 48.4 22.2 47.8 20.5 51.6 20.5 51.6 20.5"/><polygon class="a" points="55.1 20.5 63.9 20.5 63.9 22.2 55.1 22.2 55.1 20.5 55.1 20.5"/><polygon class="a" points="35.5 23.9 44.4 23.9 44.4 25.7 35.5 25.7 35.5 23.9 35.5 23.9"/><polygon class="a" points="55.1 23.9 63.9 23.9 63.9 25.7 55.1 25.7 55.1 23.9 55.1 23.9"/><polygon class="a" points="49.9 25.7 50.5 23.9 49 23.9 49.6 25.7 49.9 25.7 49.9 25.7"/></svg>
